<svg width="51" height="50" viewBox="0 0 51 50" fill="none" xmlns="http://www.w3.org/2000/svg">
<g clip-path="url(#clip0)">
<path d="M49.7306 9.32303L40.9955 0.477972C40.8155 0.295699 40.5714 0.193237 40.3168 0.193237H11.8078C10.22 0.193237 8.92814 1.50152 8.92814 3.10961V4.96286C4.21264 6.83615 0.86499 11.4908 0.86499 16.9226C0.86499 17.4594 1.29483 17.8947 1.82489 17.8947H13.5444C14.0744 17.8947 14.5043 17.4594 14.5043 16.9226V5.05386C14.5043 4.51705 14.0744 4.08173 13.5444 4.08173C12.6192 4.08173 11.7173 4.18351 10.8479 4.37502V3.10961C10.8479 2.57358 11.2785 2.13748 11.8078 2.13748H39.3569V8.06744C39.3569 9.67553 40.6488 10.9838 42.2366 10.9838H48.092V47.0496C48.092 47.5856 47.6614 48.0217 47.1321 48.0217H11.8078C11.2785 48.0217 10.8479 47.5856 10.8479 47.0496V38.7217C10.8479 38.1849 10.4181 37.7496 9.88804 37.7496C9.35798 37.7496 8.92814 38.1849 8.92814 38.7217V47.0496C8.92814 48.6577 10.22 49.966 11.8078 49.966H47.1321C48.72 49.966 50.0118 48.6577 50.0118 47.0496V10.0104C50.0118 9.75261 49.9106 9.50531 49.7306 9.32303ZM12.5844 6.06904V15.9505H2.82722C3.28614 10.7158 7.41563 6.53382 12.5844 6.06904ZM42.2366 9.03956C41.7073 9.03956 41.2767 8.60347 41.2767 8.06744V3.51207L46.7355 9.03956H42.2366Z" fill="url(#paint0_linear)"/>
<path d="M10.5666 34.5024C10.3881 34.3214 10.1405 34.2175 9.888 34.2175C9.63555 34.2175 9.38789 34.3214 9.20935 34.5024C9.03081 34.6832 8.9281 34.934 8.9281 35.1897C8.9281 35.4453 9.03071 35.6961 9.20935 35.8768C9.38789 36.0578 9.63555 36.1618 9.888 36.1618C10.1405 36.1618 10.3881 36.0578 10.5666 35.8768C10.7452 35.6961 10.8479 35.4453 10.8479 35.1897C10.8479 34.934 10.7452 34.6832 10.5666 34.5024Z" fill="url(#paint1_linear)"/>
<path d="M16.9825 7.56384C16.4525 7.56384 16.0226 7.99916 16.0226 8.53597V19.4325H5.26312C4.73307 19.4325 4.30322 19.8678 4.30322 20.4046C4.30322 27.4851 9.9911 33.2455 16.9825 33.2455C23.9739 33.2455 29.6619 27.4851 29.6619 20.4046C29.6619 13.3242 23.9739 7.56384 16.9825 7.56384ZM17.9424 9.55115C20.1895 9.75316 22.24 10.6582 23.8781 12.0466L17.9424 18.0577V9.55115ZM16.9825 31.3013C11.3732 31.3013 6.7525 26.9317 6.26554 21.3767H16.9825C17.2475 21.3767 17.4872 21.2681 17.661 21.0923C17.6611 21.0922 17.6612 21.0922 17.6614 21.092L25.2358 13.4212C26.7996 15.3136 27.7421 17.7498 27.7421 20.4046C27.7421 26.413 22.9154 31.3013 16.9825 31.3013Z" fill="url(#paint2_linear)"/>
<path d="M42.9156 30.874C41.3277 30.874 40.0359 32.1823 40.0359 33.7904C40.0359 34.1934 40.1171 34.5775 40.2636 34.927L34.7334 40.5277C34.3534 40.3402 33.9268 40.2347 33.4764 40.2347C33.0367 40.2347 32.6199 40.3354 32.2468 40.5146L28.5744 36.7954C28.7017 36.4665 28.7723 36.1088 28.7723 35.7345C28.7723 34.1265 27.4805 32.8182 25.8926 32.8182C24.3048 32.8182 23.0129 34.1265 23.0129 35.7345C23.0129 36.1703 23.1084 36.5836 23.2783 36.9552L19.756 40.5224C19.3808 40.3407 18.9609 40.2387 18.518 40.2387C16.9301 40.2387 15.6383 41.547 15.6383 43.1551C15.6383 44.7631 16.9301 46.0714 18.518 46.0714C20.1059 46.0714 21.3977 44.7631 21.3977 43.1551C21.3977 42.7043 21.2961 42.2771 21.1151 41.8958L24.6178 38.3485C25.0024 38.5417 25.4351 38.6509 25.8928 38.6509C26.4097 38.6509 26.8948 38.5116 27.3145 38.2692L30.8833 41.8834C30.6998 42.2669 30.5967 42.697 30.5967 43.1511C30.5967 44.7592 31.8885 46.0674 33.4764 46.0674C35.0643 46.0674 36.3561 44.7592 36.3561 43.1511C36.3561 42.708 36.2576 42.2878 36.0822 41.9114L41.5609 36.363C41.9649 36.5821 42.4261 36.7068 42.9156 36.7068C44.5034 36.7068 45.7953 35.3985 45.7953 33.7904C45.7953 32.1823 44.5034 30.874 42.9156 30.874ZM18.5179 44.1273C17.9886 44.1273 17.558 43.6912 17.558 43.1552C17.558 42.6191 17.9886 42.183 18.5179 42.183C18.7756 42.183 19.0094 42.287 19.182 42.4549C19.1858 42.459 19.1892 42.4634 19.1931 42.4674C19.1977 42.472 19.2027 42.4759 19.2074 42.4804C19.3744 42.6554 19.4778 42.8932 19.4778 43.1552C19.4778 43.6911 19.0472 44.1273 18.5179 44.1273ZM25.8926 36.7067C25.3633 36.7067 24.9327 36.2706 24.9327 35.7345C24.9327 35.1985 25.3633 34.7624 25.8926 34.7624C26.4219 34.7624 26.8525 35.1985 26.8525 35.7345C26.8525 36.2706 26.4219 36.7067 25.8926 36.7067ZM33.4762 44.1232C32.9469 44.1232 32.5163 43.6871 32.5163 43.1511C32.5163 42.615 32.9469 42.1789 33.4762 42.1789C34.0055 42.1789 34.4361 42.615 34.4361 43.1511C34.4361 43.6871 34.0055 44.1232 33.4762 44.1232ZM42.9154 34.7624C42.3861 34.7624 41.9555 34.3263 41.9555 33.7903C41.9555 33.2543 42.3862 32.8182 42.9154 32.8182C43.4447 32.8182 43.8753 33.2543 43.8753 33.7903C43.8753 34.3263 43.4447 34.7624 42.9154 34.7624Z" fill="url(#paint3_linear)"/>
<path d="M38.1177 23.0381H33.0515C32.5214 23.0381 32.0916 23.4734 32.0916 24.0102C32.0916 24.547 32.5213 24.9823 33.0515 24.9823H38.1177C38.6478 24.9823 39.0776 24.547 39.0776 24.0102C39.0776 23.4734 38.6478 23.0381 38.1177 23.0381Z" fill="url(#paint4_linear)"/>
<path d="M43.1666 23.3229C42.9882 23.1421 42.7405 23.0381 42.4881 23.0381C42.2356 23.0381 41.988 23.142 41.8094 23.3229C41.6309 23.5037 41.5282 23.7545 41.5282 24.0102C41.5282 24.2659 41.6308 24.5167 41.8094 24.6974C41.988 24.8782 42.2347 24.9823 42.4881 24.9823C42.7405 24.9823 42.9882 24.8783 43.1666 24.6974C43.3452 24.5167 43.448 24.2659 43.448 24.0102C43.448 23.7545 43.3453 23.5037 43.1666 23.3229Z" fill="url(#paint5_linear)"/>
<path d="M44.777 13.7058H33.0515C32.5214 13.7058 32.0916 14.1411 32.0916 14.6779C32.0916 15.2147 32.5213 15.6501 33.0515 15.6501H44.777C45.3071 15.6501 45.7369 15.2147 45.7369 14.6779C45.7369 14.1411 45.3071 13.7058 44.777 13.7058Z" fill="url(#paint6_linear)"/>
<path d="M44.777 18.3719H33.0515C32.5214 18.3719 32.0916 18.8073 32.0916 19.3441C32.0916 19.8809 32.5213 20.3162 33.0515 20.3162H44.777C45.3071 20.3162 45.7369 19.8809 45.7369 19.3441C45.7369 18.8073 45.3071 18.3719 44.777 18.3719Z" fill="url(#paint7_linear)"/>
</g>
<defs>
<linearGradient id="paint0_linear" x1="50.0119" y1="29.133" x2="0.865067" y2="29.133" gradientUnits="userSpaceOnUse">
<stop stop-color="#2CBFC9"/>
<stop offset="1" stop-color="#3AC737"/>
</linearGradient>
<linearGradient id="paint1_linear" x1="10.8479" y1="35.348" x2="8.9281" y2="35.348" gradientUnits="userSpaceOnUse">
<stop stop-color="#2CBFC9"/>
<stop offset="1" stop-color="#3AC737"/>
</linearGradient>
<linearGradient id="paint2_linear" x1="29.6619" y1="22.4961" x2="4.30326" y2="22.4961" gradientUnits="userSpaceOnUse">
<stop stop-color="#2CBFC9"/>
<stop offset="1" stop-color="#3AC737"/>
</linearGradient>
<linearGradient id="paint3_linear" x1="45.7953" y1="39.7104" x2="15.6384" y2="39.7104" gradientUnits="userSpaceOnUse">
<stop stop-color="#2CBFC9"/>
<stop offset="1" stop-color="#3AC737"/>
</linearGradient>
<linearGradient id="paint4_linear" x1="39.0776" y1="24.1685" x2="32.0916" y2="24.1685" gradientUnits="userSpaceOnUse">
<stop stop-color="#2CBFC9"/>
<stop offset="1" stop-color="#3AC737"/>
</linearGradient>
<linearGradient id="paint5_linear" x1="43.448" y1="24.1685" x2="41.5282" y2="24.1685" gradientUnits="userSpaceOnUse">
<stop stop-color="#2CBFC9"/>
<stop offset="1" stop-color="#3AC737"/>
</linearGradient>
<linearGradient id="paint6_linear" x1="45.7369" y1="14.8363" x2="32.0916" y2="14.8363" gradientUnits="userSpaceOnUse">
<stop stop-color="#2CBFC9"/>
<stop offset="1" stop-color="#3AC737"/>
</linearGradient>
<linearGradient id="paint7_linear" x1="45.7369" y1="19.5024" x2="32.0916" y2="19.5024" gradientUnits="userSpaceOnUse">
<stop stop-color="#2CBFC9"/>
<stop offset="1" stop-color="#3AC737"/>
</linearGradient>
<clipPath id="clip0">
<rect width="49.1468" height="49.7727" fill="white" transform="translate(0.86499 0.193237)"/>
</clipPath>
</defs>
</svg>
