<svg width="50" height="51" viewBox="0 0 50 51" fill="none" xmlns="http://www.w3.org/2000/svg">
<path d="M45.8877 22.2087H43.4967C43.3605 21.7094 43.0675 21.2685 42.6619 20.9528C42.2564 20.6371 41.7604 20.4638 41.2489 20.4589H38.6965V14.1377C38.6994 14.0195 38.6712 13.9026 38.6147 13.799C38.5583 13.6955 38.4757 13.609 38.3753 13.5484L20.3698 3.01625C20.2684 2.95652 20.1531 2.92505 20.0357 2.92505C19.9183 2.92505 19.803 2.95652 19.7016 3.01625L1.69049 13.5484C1.58858 13.6083 1.50404 13.6942 1.4454 13.7977C1.38675 13.9012 1.35607 14.0184 1.35645 14.1377V35.2022C1.35645 35.3216 1.3875 35.439 1.44647 35.5424C1.50545 35.6459 1.59027 35.7318 1.69241 35.7915L19.7053 46.3237C19.8074 46.3834 19.9233 46.4149 20.0413 46.4149C20.1623 46.4149 20.2812 46.3835 20.3868 46.3237L29.8654 40.7868V44.7894C29.8645 45.1705 29.9381 45.5479 30.0822 45.9C30.2262 46.252 30.4378 46.5717 30.7047 46.8403C30.9715 47.109 31.2883 47.3214 31.6368 47.4653C31.9852 47.6091 32.3584 47.6815 32.7347 47.6783H45.8877C46.2649 47.6819 46.6392 47.6098 46.9888 47.4664C47.3385 47.3229 47.6566 47.1108 47.925 46.8423C48.1934 46.5738 48.4067 46.2542 48.5527 45.9018C48.6986 45.5495 48.7743 45.1714 48.7755 44.7894V25.1428C48.775 24.3664 48.4709 23.6218 47.9297 23.0719C47.3885 22.5221 46.6543 22.2117 45.8877 22.2087ZM41.2728 21.8198C41.5315 21.8198 41.7796 21.9239 41.9625 22.1092C42.1454 22.2944 42.2481 22.5456 42.2481 22.8076V22.8735C42.2481 23.1355 42.1454 23.3867 41.9625 23.572C41.7796 23.7572 41.5315 23.8613 41.2728 23.8613H37.3681C37.1094 23.8613 36.8613 23.7572 36.6784 23.572C36.4955 23.3867 36.3928 23.1355 36.3928 22.8735V22.8076C36.3928 22.5456 36.4955 22.2944 36.6784 22.1092C36.8613 21.9239 37.1094 21.8198 37.3681 21.8198H41.2728ZM20.0413 4.39132L27.526 8.76763L10.8581 18.5134L3.37348 14.1371L20.0413 4.39132ZM19.4025 44.5557L2.70031 34.8093V15.3149L19.4025 25.0613V44.5557ZM20.0413 23.8827L12.202 19.299L28.8698 9.55339L36.7095 14.1371L20.0413 23.8827ZM29.8654 25.1428V39.2153L20.7464 44.5557V25.0613L37.3527 15.3149V20.4589H37.3735C36.862 20.4637 36.366 20.6371 35.9604 20.9528C35.5549 21.2685 35.2619 21.7094 35.1257 22.2087H32.7347C31.97 22.2124 31.2381 22.5237 30.7 23.0739C30.162 23.6242 29.8617 24.3683 29.8654 25.1428ZM47.4316 44.7894C47.4307 44.9928 47.3899 45.194 47.3115 45.3813C47.2332 45.5686 47.1188 45.7382 46.9752 45.8804C46.8315 46.0225 46.6614 46.1344 46.4747 46.2094C46.2881 46.2844 46.0885 46.3211 45.8877 46.3174H32.7347C32.5348 46.3208 32.3363 46.2837 32.1508 46.2083C31.9653 46.133 31.7966 46.0208 31.6545 45.8785C31.5124 45.7361 31.3998 45.5665 31.3233 45.3794C31.2469 45.1924 31.2081 44.9918 31.2093 44.7894V25.1428C31.2073 24.938 31.2451 24.7348 31.3207 24.5449C31.3963 24.3549 31.5082 24.182 31.6499 24.0358C31.7915 23.8897 31.9603 23.7733 32.1464 23.6934C32.3326 23.6134 32.5325 23.5713 32.7347 23.5697H35.1519C35.296 24.0513 35.5904 24.4727 35.9909 24.7707C36.3914 25.0686 36.8765 25.2271 37.3735 25.2223H41.2489C41.7458 25.2271 42.2309 25.0686 42.6314 24.7707C43.032 24.4727 43.3263 24.0513 43.4704 23.5697H45.8877C46.298 23.5723 46.6906 23.7392 46.9799 24.0339C47.2691 24.3286 47.4315 24.7272 47.4316 25.1428V44.7894Z" fill="url(#paint0_linear)"/>
<path d="M33.5082 32.0271H34.2116C34.3898 32.0271 34.5607 31.9554 34.6867 31.8278C34.8127 31.7002 34.8835 31.5271 34.8835 31.3466C34.8835 31.1661 34.8127 30.9931 34.6867 30.8654C34.5607 30.7378 34.3898 30.6661 34.2116 30.6661H34.1851V28.8191H36.0383C36.0805 28.9559 36.1658 29.075 36.2812 29.158C36.3966 29.241 36.5357 29.2834 36.6772 29.2786C36.8556 29.2791 37.0269 29.2079 37.1536 29.0806C37.2802 28.9534 37.3518 28.7804 37.3527 28.5997V28.1418C37.3512 27.9602 37.279 27.7866 37.1519 27.6586C37.0247 27.5306 36.8528 27.4586 36.6735 27.4581H33.5082C33.4201 27.4586 33.3329 27.4766 33.2516 27.5113C33.1704 27.5459 33.0967 27.5964 33.0347 27.6599C32.9728 27.7234 32.9238 27.7987 32.8906 27.8813C32.8574 27.964 32.8406 28.0526 32.8412 28.1418V31.3474C32.8407 31.4365 32.8575 31.5247 32.8908 31.6072C32.9241 31.6896 32.9731 31.7646 33.0351 31.8277C33.0971 31.8909 33.1708 31.9411 33.252 31.9753C33.3332 32.0095 33.4203 32.0271 33.5082 32.0271Z" fill="url(#paint1_linear)"/>
<path d="M33.5131 38.2487H36.6808C36.859 38.2487 37.0299 38.177 37.1559 38.0494C37.2819 37.9217 37.3527 37.7487 37.3527 37.5682V34.3602C37.3527 34.1797 37.2819 34.0066 37.1559 33.879C37.0299 33.7514 36.859 33.6797 36.6808 33.6797H33.5131C33.3349 33.6797 33.164 33.7514 33.038 33.879C32.912 34.0066 32.8412 34.1797 32.8412 34.3602V37.5682C32.8412 37.7487 32.912 37.9217 33.038 38.0494C33.164 38.177 33.3349 38.2487 33.5131 38.2487ZM34.185 35.0407H36.0089V36.8877H34.185V35.0407Z" fill="url(#paint2_linear)"/>
<path d="M34.2116 43.1094H34.185V41.2623H36.002C36.0054 41.4413 36.078 41.6117 36.2041 41.7371C36.3303 41.8625 36.4999 41.9328 36.6766 41.933C36.8534 41.9332 37.0231 41.8632 37.1495 41.7381C37.2759 41.6129 37.3488 41.4426 37.3526 41.2637V40.608C37.352 40.424 37.2807 40.2475 37.154 40.1157C37.0273 39.9839 36.855 39.907 36.6734 39.9014H33.5081C33.3278 39.9075 33.1571 39.9849 33.0324 40.117C32.9077 40.249 32.8391 40.4253 32.8411 40.608V43.8136C32.841 43.9014 32.8584 43.9884 32.8921 44.0694C32.9258 44.1503 32.9752 44.2236 33.0374 44.2849C33.0996 44.3461 33.1734 44.3941 33.2542 44.426C33.3351 44.4578 33.4214 44.4729 33.5081 44.4703H34.2116C34.3898 44.4703 34.5607 44.3986 34.6867 44.271C34.8127 44.1434 34.8835 43.9703 34.8835 43.7899C34.8835 43.6094 34.8127 43.4363 34.6867 43.3087C34.5607 43.1811 34.3898 43.1094 34.2116 43.1094Z" fill="url(#paint3_linear)"/>
<path d="M38.2205 28.2934L36.2527 30.2862L35.6541 29.6799C35.5917 29.6167 35.5176 29.5666 35.4361 29.5324C35.3545 29.4982 35.2672 29.4806 35.1789 29.4806C35.0907 29.4806 35.0033 29.4982 34.9218 29.5324C34.8402 29.5666 34.7662 29.6167 34.7038 29.6799C34.6414 29.7431 34.5919 29.8181 34.5581 29.9007C34.5243 29.9832 34.507 30.0717 34.507 30.1611C34.507 30.2505 34.5243 30.339 34.5581 30.4215C34.5919 30.5041 34.6414 30.5791 34.7038 30.6423L35.7776 31.7297C35.84 31.7929 35.9141 31.843 35.9956 31.8772C36.0771 31.9114 36.1645 31.9291 36.2528 31.9291C36.341 31.9291 36.4284 31.9114 36.5099 31.8772C36.5914 31.843 36.6655 31.7929 36.7279 31.7297L39.171 29.2555C39.2971 29.1279 39.3679 28.9548 39.3679 28.7743C39.3679 28.5938 39.2971 28.4207 39.171 28.2931C39.045 28.1654 38.8741 28.0938 38.6959 28.0938C38.5177 28.0938 38.3468 28.1654 38.2207 28.2931L38.2205 28.2934Z" fill="url(#paint4_linear)"/>
<path d="M38.2205 40.8579L36.2527 42.8508L35.6541 42.2445C35.5917 42.1813 35.5176 42.1312 35.4361 42.097C35.3545 42.0628 35.2672 42.0452 35.1789 42.0452C35.0907 42.0452 35.0033 42.0628 34.9218 42.097C34.8402 42.1312 34.7662 42.1813 34.7038 42.2445C34.6414 42.3077 34.5919 42.3827 34.5581 42.4653C34.5243 42.5478 34.507 42.6363 34.507 42.7257C34.507 42.815 34.5243 42.9035 34.5581 42.9861C34.5919 43.0687 34.6414 43.1437 34.7038 43.2069L35.7776 44.2943C35.84 44.3575 35.9141 44.4076 35.9956 44.4418C36.0771 44.476 36.1645 44.4936 36.2528 44.4936C36.341 44.4936 36.4284 44.476 36.5099 44.4418C36.5914 44.4076 36.6655 44.3575 36.7279 44.2943L39.171 41.82C39.2971 41.6924 39.3679 41.5193 39.3679 41.3388C39.3679 41.1584 39.2971 40.9853 39.171 40.8576C39.045 40.73 38.8741 40.6583 38.6959 40.6583C38.5177 40.6583 38.3468 40.73 38.2207 40.8576L38.2205 40.8579Z" fill="url(#paint5_linear)"/>
<path d="M45.1141 29.1107H40.8939C40.7156 29.1107 40.5447 29.1824 40.4187 29.31C40.2927 29.4376 40.2219 29.6107 40.2219 29.7912C40.2219 29.9717 40.2927 30.1448 40.4187 30.2724C40.5447 30.4 40.7156 30.4717 40.8939 30.4717H45.1141C45.2924 30.4717 45.4633 30.4 45.5893 30.2724C45.7153 30.1448 45.7861 29.9717 45.7861 29.7912C45.7861 29.6107 45.7153 29.4376 45.5893 29.31C45.4633 29.1824 45.2924 29.1107 45.1141 29.1107Z" fill="url(#paint6_linear)"/>
<path d="M45.1141 35.3324H40.8939C40.7156 35.3324 40.5447 35.4041 40.4187 35.5317C40.2927 35.6593 40.2219 35.8324 40.2219 36.0129C40.2219 36.1934 40.2927 36.3664 40.4187 36.4941C40.5447 36.6217 40.7156 36.6934 40.8939 36.6934H45.1141C45.2924 36.6934 45.4633 36.6217 45.5893 36.4941C45.7153 36.3664 45.7861 36.1934 45.7861 36.0129C45.7861 35.8324 45.7153 35.6593 45.5893 35.5317C45.4633 35.4041 45.2924 35.3324 45.1141 35.3324Z" fill="url(#paint7_linear)"/>
<path d="M45.1141 41.554H40.8939C40.7156 41.554 40.5447 41.6256 40.4187 41.7533C40.2927 41.8809 40.2219 42.054 40.2219 42.2344C40.2219 42.4149 40.2927 42.588 40.4187 42.7156C40.5447 42.8432 40.7156 42.9149 40.8939 42.9149H45.1141C45.2924 42.9149 45.4633 42.8432 45.5893 42.7156C45.7153 42.588 45.7861 42.4149 45.7861 42.2344C45.7861 42.054 45.7153 41.8809 45.5893 41.7533C45.4633 41.6256 45.2924 41.554 45.1141 41.554Z" fill="url(#paint8_linear)"/>
<defs>
<linearGradient id="paint0_linear" x1="48.7755" y1="28.9463" x2="1.35652" y2="28.9463" gradientUnits="userSpaceOnUse">
<stop stop-color="#2CBFC9"/>
<stop offset="1" stop-color="#3AC737"/>
</linearGradient>
<linearGradient id="paint1_linear" x1="37.3527" y1="30.1147" x2="32.8412" y2="30.1147" gradientUnits="userSpaceOnUse">
<stop stop-color="#2CBFC9"/>
<stop offset="1" stop-color="#3AC737"/>
</linearGradient>
<linearGradient id="paint2_linear" x1="37.3527" y1="36.3363" x2="32.8412" y2="36.3363" gradientUnits="userSpaceOnUse">
<stop stop-color="#2CBFC9"/>
<stop offset="1" stop-color="#3AC737"/>
</linearGradient>
<linearGradient id="paint3_linear" x1="37.3526" y1="42.5581" x2="32.8411" y2="42.5581" gradientUnits="userSpaceOnUse">
<stop stop-color="#2CBFC9"/>
<stop offset="1" stop-color="#3AC737"/>
</linearGradient>
<linearGradient id="paint4_linear" x1="39.3679" y1="30.3237" x2="34.507" y2="30.3237" gradientUnits="userSpaceOnUse">
<stop stop-color="#2CBFC9"/>
<stop offset="1" stop-color="#3AC737"/>
</linearGradient>
<linearGradient id="paint5_linear" x1="39.3679" y1="42.8883" x2="34.507" y2="42.8883" gradientUnits="userSpaceOnUse">
<stop stop-color="#2CBFC9"/>
<stop offset="1" stop-color="#3AC737"/>
</linearGradient>
<linearGradient id="paint6_linear" x1="45.7861" y1="29.902" x2="40.2219" y2="29.902" gradientUnits="userSpaceOnUse">
<stop stop-color="#2CBFC9"/>
<stop offset="1" stop-color="#3AC737"/>
</linearGradient>
<linearGradient id="paint7_linear" x1="45.7861" y1="36.1237" x2="40.2219" y2="36.1237" gradientUnits="userSpaceOnUse">
<stop stop-color="#2CBFC9"/>
<stop offset="1" stop-color="#3AC737"/>
</linearGradient>
<linearGradient id="paint8_linear" x1="45.7861" y1="42.3453" x2="40.2219" y2="42.3453" gradientUnits="userSpaceOnUse">
<stop stop-color="#2CBFC9"/>
<stop offset="1" stop-color="#3AC737"/>
</linearGradient>
</defs>
</svg>
