<svg width="50" height="50" viewBox="0 0 50 50" fill="none" xmlns="http://www.w3.org/2000/svg">
<g clip-path="url(#clip0)">
<path d="M38.8547 14.9695H25.032C24.5019 14.9695 24.0721 15.4047 24.0721 15.9416C24.0721 16.4785 24.5019 16.9137 25.032 16.9137H38.8547C39.3849 16.9137 39.8146 16.4785 39.8146 15.9416C39.8146 15.4047 39.3849 14.9695 38.8547 14.9695Z" fill="white"/>
<path d="M35.4957 19.9206C35.3172 19.7398 35.0695 19.6357 34.8171 19.6357C34.5646 19.6357 34.317 19.7398 34.1384 19.9206C33.9599 20.1014 33.8572 20.3522 33.8572 20.6079C33.8572 20.8635 33.9599 21.1143 34.1384 21.2952C34.317 21.476 34.5646 21.58 34.8171 21.58C35.0695 21.58 35.3172 21.476 35.4957 21.2952C35.6743 21.1143 35.777 20.8635 35.777 20.6079C35.777 20.3522 35.6743 20.1014 35.4957 19.9206Z" fill="white"/>
<path d="M25.7097 4.65837C25.5312 4.47755 25.2835 4.37354 25.0311 4.37354C24.7786 4.37354 24.531 4.47755 24.3524 4.65837C24.1739 4.83918 24.0712 5.08999 24.0712 5.34566C24.0712 5.60132 24.1739 5.85213 24.3524 6.03295C24.531 6.21376 24.7786 6.31778 25.0311 6.31778C25.2835 6.31778 25.5312 6.21376 25.7097 6.03295C25.8883 5.85213 25.991 5.60132 25.991 5.34566C25.991 5.08999 25.8883 4.83918 25.7097 4.65837Z" fill="white"/>
<path d="M30.7796 19.6356H25.032C24.5019 19.6356 24.0721 20.0708 24.0721 20.6077C24.0721 21.1446 24.5019 21.5799 25.032 21.5799H30.7796C31.3098 21.5799 31.7395 21.1446 31.7395 20.6077C31.7395 20.0708 31.3098 19.6356 30.7796 19.6356Z" fill="white"/>
<path d="M38.8547 25.4684H25.032C24.5019 25.4684 24.0721 25.9036 24.0721 26.4405C24.0721 26.9774 24.5019 27.4126 25.032 27.4126H38.8547C39.3849 27.4126 39.8146 26.9774 39.8146 26.4405C39.8146 25.9036 39.3849 25.4684 38.8547 25.4684Z" fill="white"/>
<path d="M35.4957 30.4196C35.3172 30.2388 35.0695 30.1348 34.8171 30.1348C34.5646 30.1348 34.317 30.2388 34.1384 30.4196C33.9599 30.6004 33.8572 30.8512 33.8572 31.1069C33.8572 31.3626 33.9599 31.6134 34.1384 31.7942C34.317 31.975 34.5646 32.079 34.8171 32.079C35.0695 32.079 35.3172 31.975 35.4957 31.7942C35.6743 31.6134 35.777 31.3626 35.777 31.1069C35.777 30.8512 35.6743 30.6004 35.4957 30.4196Z" fill="white"/>
<path d="M30.7796 30.1346H25.032C24.5019 30.1346 24.0721 30.5699 24.0721 31.1068C24.0721 31.6437 24.5019 32.0789 25.032 32.0789H30.7796C31.3098 32.0789 31.7395 31.6437 31.7395 31.1068C31.7395 30.5699 31.3098 30.1346 30.7796 30.1346Z" fill="white"/>
<path d="M38.8547 35.9673H25.032C24.5019 35.9673 24.0721 36.4025 24.0721 36.9394C24.0721 37.4763 24.5019 37.9115 25.032 37.9115H38.8547C39.3849 37.9115 39.8146 37.4763 39.8146 36.9394C39.8146 36.4025 39.3849 35.9673 38.8547 35.9673Z" fill="white"/>
<path d="M35.4957 40.9185C35.3172 40.7377 35.0695 40.6337 34.8171 40.6337C34.5646 40.6337 34.317 40.7377 34.1384 40.9185C33.9599 41.0993 33.8572 41.3501 33.8572 41.6058C33.8572 41.8615 33.9599 42.1123 34.1384 42.2931C34.317 42.4739 34.5646 42.5779 34.8171 42.5779C35.0695 42.5779 35.3172 42.4739 35.4957 42.2931C35.6743 42.1123 35.777 41.8615 35.777 41.6058C35.777 41.3501 35.6743 41.0993 35.4957 40.9185Z" fill="white"/>
<path d="M30.7796 40.6335H25.032C24.5019 40.6335 24.0721 41.0688 24.0721 41.6057C24.0721 42.1426 24.5019 42.5778 25.032 42.5778H30.7796C31.3098 42.5778 31.7395 42.1426 31.7395 41.6057C31.7395 41.0688 31.3098 40.6335 30.7796 40.6335Z" fill="white"/>
<path d="M40.7015 3.98461H33.3699C32.3101 2.96184 30.8774 2.33191 29.3014 2.33191H28.4605C27.8177 1.04307 26.4969 0.193237 25.0318 0.193237C23.5668 0.193237 22.2461 1.04307 21.6032 2.33191H20.7603C19.1843 2.33191 17.7517 2.96184 16.6919 3.98461H9.3624C6.78171 3.98461 4.68213 6.11093 4.68213 8.72448V45.2261C4.68213 47.8396 6.78171 49.966 9.3624 49.966H40.7014C43.2821 49.966 45.3817 47.8396 45.3817 45.2261V8.72448C45.3818 6.11093 43.2822 3.98461 40.7015 3.98461ZM20.7604 4.27615H22.2565C22.6883 4.27615 23.0668 3.98422 23.1817 3.56281C23.4107 2.72357 24.1715 2.13748 25.0319 2.13748C25.8924 2.13748 26.6532 2.72357 26.882 3.56281C26.997 3.98422 27.3756 4.27615 27.8073 4.27615H29.3014C31.3848 4.27615 33.0998 5.90445 33.2709 7.97031H16.7908C16.962 5.90445 18.677 4.27615 20.7604 4.27615ZM43.462 45.2262C43.462 46.7677 42.2236 48.0218 40.7015 48.0218H9.3624C7.84029 48.0218 6.60192 46.7677 6.60192 45.2262V8.72448C6.60192 7.18299 7.84029 5.92885 9.3624 5.92885H15.3471C15.0326 6.65911 14.857 7.46422 14.857 8.31055V8.94243C14.857 9.47933 15.2868 9.91455 15.8169 9.91455H34.2449C34.7751 9.91455 35.2048 9.47933 35.2048 8.94243V8.31055C35.2048 7.46432 35.0293 6.65911 34.7148 5.92885H40.7015C42.2236 5.92885 43.462 7.18299 43.462 8.72448V45.2262Z" fill="white"/>
<path d="M18.9279 14.7358C18.553 14.3562 17.9452 14.3562 17.5704 14.7357L13.4657 18.8928L12.2012 17.6121C11.8264 17.2326 11.2186 17.2326 10.8436 17.6121C10.4688 17.9917 10.4688 18.6073 10.8436 18.987L12.7869 20.955C12.9744 21.1449 13.22 21.2398 13.4657 21.2398C13.7113 21.2398 13.9571 21.1449 14.1444 20.955L18.9279 16.1106C19.3027 15.731 19.3027 15.1155 18.9279 14.7358Z" fill="white"/>
<path d="M16.5849 35.9673H11.9774C11.4472 35.9673 11.0175 36.4025 11.0175 36.9394V41.6056C11.0175 42.1425 11.4472 42.5777 11.9774 42.5777H16.5849C17.115 42.5777 17.5448 42.1425 17.5448 41.6056V36.9394C17.5448 36.4025 17.115 35.9673 16.5849 35.9673ZM15.625 40.6335H12.9373V37.9115H15.625V40.6335Z" fill="white"/>
<path d="M16.5849 25.4684H11.9774C11.4472 25.4684 11.0175 25.9036 11.0175 26.4405V31.1067C11.0175 31.6436 11.4472 32.0788 11.9774 32.0788H16.5849C17.115 32.0788 17.5448 31.6436 17.5448 31.1067V26.4405C17.5448 25.9036 17.115 25.4684 16.5849 25.4684ZM15.625 30.1346H12.9373V27.4126H15.625V30.1346Z" fill="white"/>
</g>
<defs>
<clipPath id="clip0">
<rect width="49.1468" height="49.7727" fill="white" transform="translate(0.458496 0.193237)"/>
</clipPath>
</defs>
</svg>
