<svg width="13" height="25" viewBox="0 0 13 25" fill="none" xmlns="http://www.w3.org/2000/svg">
<path d="M8.46819 25H3.08844V13.791H0.124817V8.64317H3.08835V5.75251C3.08835 3.09872 4.74867 0 9.4299 0C11.0802 0 12.2917 0.154659 12.3423 0.161323L12.839 0.225887L12.7194 5.04334L12.172 5.03832C12.1709 5.03832 10.9411 5.02664 9.59953 5.02664C8.60113 5.02664 8.46871 5.27304 8.46871 6.25309V8.6443H12.8751L12.6309 13.7921H8.46923V25H8.46819ZM4.20022 23.8875H7.35511V12.6791H11.568L11.707 9.75564H7.35511V6.25197C7.35511 5.09501 7.6215 3.91304 9.59832 3.91304C10.3926 3.91304 11.1474 3.91694 11.6329 3.92083L11.7003 1.21261C11.2091 1.16864 10.392 1.11247 9.42869 1.11247C5.57355 1.11247 4.19961 3.50921 4.19961 5.75251V9.75564H1.23616V12.6791H4.1997V23.8875H4.20022Z" fill="url(#paint0_linear)"/>
<defs>
<linearGradient id="paint0_linear" x1="12.8751" y1="14.5359" x2="0.124837" y2="14.5359" gradientUnits="userSpaceOnUse">
<stop stop-color="#2CBFC9"/>
<stop offset="1" stop-color="#3AC737"/>
</linearGradient>
</defs>
</svg>
