<svg width="14" height="14" viewBox="0 0 14 14" fill="none" xmlns="http://www.w3.org/2000/svg">
<path d="M7 0C3.14031 0 0 3.14004 0 7C0 10.86 3.14031 14 7 14C10.8597 14 14 10.86 14 7C14 3.14004 10.8597 0 7 0ZM7 13.4615C3.43727 13.4615 0.538462 10.5627 0.538462 7C0.538462 3.43727 3.43727 0.538462 7 0.538462C10.5627 0.538462 13.4615 3.43727 13.4615 7C13.4615 10.5627 10.5627 13.4615 7 13.4615Z" fill="url(#paint0_linear)"/>
<path d="M10.3654 6.73077H7.26926V3.76923C7.26926 3.62035 7.14865 3.5 7.00003 3.5C6.85142 3.5 6.7308 3.62035 6.7308 3.76923V6.73077H3.63465C3.48603 6.73077 3.36542 6.85112 3.36542 7C3.36542 7.14888 3.48603 7.26923 3.63465 7.26923H6.7308V10.5C6.7308 10.6489 6.85142 10.7692 7.00003 10.7692C7.14865 10.7692 7.26926 10.6489 7.26926 10.5V7.26923H10.3654C10.514 7.26923 10.6346 7.14888 10.6346 7C10.6346 6.85112 10.514 6.73077 10.3654 6.73077Z" fill="url(#paint1_linear)"/>
<defs>
<linearGradient id="paint0_linear" x1="14" y1="8.14012" x2="2.17287e-05" y2="8.14012" gradientUnits="userSpaceOnUse">
<stop stop-color="#2CBFC9"/>
<stop offset="1" stop-color="#3AC737"/>
</linearGradient>
<linearGradient id="paint1_linear" x1="10.6347" y1="7.7266" x2="3.36543" y2="7.7266" gradientUnits="userSpaceOnUse">
<stop stop-color="#2CBFC9"/>
<stop offset="1" stop-color="#3AC737"/>
</linearGradient>
</defs>
</svg>
