<svg width="50" height="50" viewBox="0 0 50 50" fill="none" xmlns="http://www.w3.org/2000/svg">
<g clip-path="url(#clip0)">
<path d="M49.2668 9.9768L39.5836 0.193237H27.3836L22.5756 5.04664C10.6203 4.03643 0.980722 10.8476 0.845689 10.9455C0.454529 11.2279 0.363055 11.7793 0.643575 12.1763C0.813455 12.4163 1.08091 12.5451 1.35272 12.5451C1.52782 12.5451 1.70467 12.4913 1.858 12.3801C1.9791 12.2928 10.3189 6.40181 20.9203 6.71679L5.34621 22.4381L5.35318 22.4451L0.119995 27.7317L22.0267 49.966L30.7734 41.1317C32.5698 42.0846 34.6597 42.5531 36.727 42.5522C39.777 42.5522 42.7687 41.5482 44.6557 39.6372C51.0736 33.1365 48.5263 26.006 47.6551 24.08L49.2659 22.4522V9.9768H49.2668ZM38.864 1.95779L47.5245 10.7091V21.7199L30.5033 38.9013C26.9454 36.318 25.8625 31.4708 27.4603 25.1149C27.5796 24.6429 27.2974 24.162 26.8313 24.042C26.3635 23.9159 25.8913 24.207 25.7719 24.679C23.5164 33.6492 26.5473 38.0729 29.2558 40.1603L27.2582 42.1772L7.81775 22.4478L23.2202 6.88971C26.8775 7.31321 30.7394 8.53604 34.5857 11.0073C34.5517 11.2023 34.5264 11.4008 34.5264 11.6055C34.5264 13.52 36.0641 15.0772 37.9545 15.0772C39.845 15.0772 41.3835 13.52 41.3835 11.6055C41.3835 9.69094 39.845 8.13372 37.9545 8.13372C36.8952 8.13372 35.9586 8.63309 35.3297 9.40067C31.7674 7.14469 28.1973 5.88745 24.7727 5.32279L28.1032 1.95779H38.864ZM36.5476 12.3686C36.9326 12.6616 37.4789 12.583 37.7663 12.1922C38.0556 11.8031 37.9772 11.2499 37.5921 10.9579C37.3229 10.7541 37.0529 10.5741 36.7837 10.3826C37.0877 10.0836 37.4998 9.89828 37.9545 9.89828C38.8841 9.89828 39.6411 10.6641 39.6411 11.6064C39.6411 12.5469 38.8849 13.3136 37.9545 13.3136C37.255 13.3136 36.6547 12.8795 36.3995 12.2637C36.4491 12.2998 36.4988 12.3307 36.5476 12.3686ZM2.5837 27.7353L6.58416 23.6944L26.0307 43.4309L22.0302 47.4718L2.5837 27.7353ZM43.4238 38.3896C41.1796 40.6606 36.132 41.6964 32.0723 39.8198L46.3379 25.4105C47.2047 27.595 48.6073 33.1392 43.4238 38.3896Z" fill="url(#paint0_linear)"/>
</g>
<defs>
<linearGradient id="paint0_linear" x1="49.2669" y1="29.133" x2="0.120071" y2="29.133" gradientUnits="userSpaceOnUse">
<stop stop-color="#2CBFC9"/>
<stop offset="1" stop-color="#3AC737"/>
</linearGradient>
<clipPath id="clip0">
<rect width="49.1468" height="49.7727" fill="white" transform="translate(0.119995 0.193237)"/>
</clipPath>
</defs>
</svg>
