<svg width="50" height="51" viewBox="0 0 50 51" fill="none" xmlns="http://www.w3.org/2000/svg">
<g clip-path="url(#clip0)">
<path d="M20.7276 39.593C18.3443 39.593 16.4053 41.5567 16.4053 43.9704C16.4053 46.3841 18.3443 48.3478 20.7276 48.3478C23.1109 48.3478 25.0499 46.3841 25.0499 43.9704C25.0498 41.5567 23.1109 39.593 20.7276 39.593ZM20.7276 45.9035C19.675 45.9035 18.8187 45.0361 18.8187 43.9702C18.8187 42.9042 19.6751 42.0369 20.7276 42.0369C21.7801 42.0369 22.6366 42.9043 22.6366 43.9702C22.6366 45.0363 21.7801 45.9035 20.7276 45.9035Z" fill="url(#paint0_linear)"/>
<path d="M35.8887 39.593C33.5054 39.593 31.5664 41.5567 31.5664 43.9704C31.5664 46.3841 33.5054 48.3478 35.8887 48.3478C38.2721 48.3478 40.2111 46.3841 40.2111 43.9704C40.211 41.5567 38.272 39.593 35.8887 39.593ZM35.8887 45.9035C34.8361 45.9035 33.9798 45.0361 33.9798 43.9702C33.9798 42.9042 34.8362 42.0369 35.8887 42.0369C36.9414 42.0369 37.7977 42.9043 37.7977 43.9702C37.7977 45.0363 36.9413 45.9035 35.8887 45.9035Z" fill="url(#paint1_linear)"/>
<path d="M36.9529 16.5465H19.6604C18.994 16.5465 18.4537 17.0936 18.4537 17.7686C18.4537 18.4435 18.9941 18.9906 19.6604 18.9906H36.9529C37.6194 18.9906 38.1596 18.4435 38.1596 17.7686C38.1596 17.0935 37.6194 16.5465 36.9529 16.5465Z" fill="url(#paint2_linear)"/>
<path d="M36.0117 22.8926H20.6016C19.9352 22.8926 19.395 23.4397 19.395 24.1146C19.395 24.7896 19.9352 25.3367 20.6016 25.3367H36.0116C36.6781 25.3367 37.2183 24.7896 37.2183 24.1146C37.2183 23.4398 36.6781 22.8926 36.0117 22.8926Z" fill="url(#paint3_linear)"/>
<path d="M48.7237 11.1016C48.2635 10.5296 47.5816 10.2016 46.8529 10.2016H9.26571L8.50662 6.46975C8.34815 5.69127 7.82385 5.03761 7.10383 4.72099L1.80739 2.39275C1.19593 2.12376 0.485315 2.40792 0.220095 3.02697C-0.0454135 3.64621 0.235165 4.36597 0.846334 4.63457L6.14287 6.96291L11.9816 35.666C12.2116 36.7964 13.2056 37.6168 14.3453 37.6168H43.2542C43.9207 37.6168 44.4609 37.0697 44.4609 36.3948C44.4609 35.7198 43.9207 35.1727 43.2542 35.1727H14.3454L13.6352 31.6812H43.4777C44.6173 31.6812 45.6115 30.8608 45.8414 29.7304L49.2167 13.1386C49.3636 12.4161 49.1839 11.6735 48.7237 11.1016ZM43.4777 29.2373H13.138L9.76294 12.6457L46.8528 12.6458L43.4777 29.2373Z" fill="url(#paint4_linear)"/>
</g>
<defs>
<linearGradient id="paint0_linear" x1="25.05" y1="44.6834" x2="16.4053" y2="44.6834" gradientUnits="userSpaceOnUse">
<stop stop-color="#2CBFC9"/>
<stop offset="1" stop-color="#3AC737"/>
</linearGradient>
<linearGradient id="paint1_linear" x1="40.2111" y1="44.6834" x2="31.5664" y2="44.6834" gradientUnits="userSpaceOnUse">
<stop stop-color="#2CBFC9"/>
<stop offset="1" stop-color="#3AC737"/>
</linearGradient>
<linearGradient id="paint2_linear" x1="38.1596" y1="17.9676" x2="18.4538" y2="17.9676" gradientUnits="userSpaceOnUse">
<stop stop-color="#2CBFC9"/>
<stop offset="1" stop-color="#3AC737"/>
</linearGradient>
<linearGradient id="paint3_linear" x1="37.2183" y1="24.3137" x2="19.395" y2="24.3137" gradientUnits="userSpaceOnUse">
<stop stop-color="#2CBFC9"/>
<stop offset="1" stop-color="#3AC737"/>
</linearGradient>
<linearGradient id="paint4_linear" x1="49.2668" y1="22.8309" x2="0.12001" y2="22.8309" gradientUnits="userSpaceOnUse">
<stop stop-color="#2CBFC9"/>
<stop offset="1" stop-color="#3AC737"/>
</linearGradient>
<clipPath id="clip0">
<rect width="49.1468" height="49.7727" fill="white" transform="translate(0.119995 0.433105)"/>
</clipPath>
</defs>
</svg>
